<svg width="100%" height="100%" viewBox="0 0 14 11" fill="none" xmlns="http://www.w3.org/2000/svg">
<path d="M1.41174 5.91586C1.3323 5.79007 1.29257 5.72717 1.27034 5.63016C1.25364 5.5573 1.25364 5.44238 1.27034 5.36951C1.29257 5.2725 1.3323 5.20961 1.41174 5.08382C2.06823 4.04433 4.02232 1.4165 7.00024 1.4165C9.97815 1.4165 11.9322 4.04433 12.5887 5.08382C12.6682 5.20961 12.7079 5.2725 12.7301 5.36951C12.7468 5.44238 12.7468 5.5573 12.7301 5.63016C12.7079 5.72717 12.6682 5.79007 12.5887 5.91586C11.9322 6.95535 9.97815 9.58317 7.00024 9.58317C4.02232 9.58317 2.06823 6.95535 1.41174 5.91586Z" stroke="currentColor" stroke-linecap="round" stroke-linejoin="round"/>
<path d="M7.00024 7.24984C7.96673 7.24984 8.75024 6.46634 8.75024 5.49984C8.75024 4.53334 7.96673 3.74984 7.00024 3.74984C6.03374 3.74984 5.25024 4.53334 5.25024 5.49984C5.25024 6.46634 6.03374 7.24984 7.00024 7.24984Z" stroke="currentColor" stroke-linecap="round" stroke-linejoin="round"/>
</svg>