<svg width="100%" height="100%" viewBox="0 0 11 11" fill="none" xmlns="http://www.w3.org/2000/svg">
<path d="M9.39568 5.8036C9.51774 5.69898 9.57877 5.64667 9.60113 5.58442C9.62076 5.52978 9.62076 5.47002 9.60113 5.41538C9.57877 5.35313 9.51774 5.30082 9.39568 5.1962L5.16032 1.56589C4.9502 1.38579 4.84514 1.29574 4.7562 1.29353C4.6789 1.29162 4.60506 1.32558 4.55621 1.38552C4.5 1.45448 4.5 1.59285 4.5 1.86959V4.01722C3.43266 4.20394 2.4558 4.74478 1.72985 5.55683C0.938412 6.44216 0.500617 7.58787 0.5 8.77538V9.08138C1.02467 8.44934 1.67975 7.93816 2.42038 7.58286C3.07335 7.26962 3.77921 7.08406 4.5 7.03517V9.13021C4.5 9.40695 4.5 9.54532 4.55621 9.61429C4.60506 9.67423 4.6789 9.70819 4.7562 9.70627C4.84514 9.70406 4.9502 9.61401 5.16032 9.43392L9.39568 5.8036Z" stroke="currentColor" stroke-linecap="round" stroke-linejoin="round"/>
</svg>