<svg width="100%" height="100%" viewBox="0 0 16 16" fill="none" xmlns="http://www.w3.org/2000/svg">
<path d="M4.625 8H4.6325M8 8H8.0075M11.375 8H11.3825M8 14.75C11.7279 14.75 14.75 11.7279 14.75 8C14.75 4.27208 11.7279 1.25 8 1.25C4.27208 1.25 1.25 4.27208 1.25 8C1.25 8.89786 1.4253 9.75477 1.74355 10.5384C1.80446 10.6884 1.83491 10.7633 1.8485 10.824C1.86179 10.8833 1.86665 10.9271 1.86666 10.9879C1.86666 11.05 1.85539 11.1177 1.83283 11.253L1.3881 13.9214C1.34152 14.2009 1.31824 14.3406 1.36157 14.4416C1.3995 14.53 1.46996 14.6005 1.55839 14.6384C1.65942 14.6818 1.79914 14.6585 2.07857 14.6119L4.74699 14.1672C4.88231 14.1446 4.94998 14.1333 5.0121 14.1333C5.07286 14.1334 5.11675 14.1382 5.17604 14.1515C5.23666 14.1651 5.31164 14.1955 5.46162 14.2565C6.24523 14.5747 7.10214 14.75 8 14.75ZM5 8C5 8.20711 4.83211 8.375 4.625 8.375C4.41789 8.375 4.25 8.20711 4.25 8C4.25 7.79289 4.41789 7.625 4.625 7.625C4.83211 7.625 5 7.79289 5 8ZM8.375 8C8.375 8.20711 8.20711 8.375 8 8.375C7.79289 8.375 7.625 8.20711 7.625 8C7.625 7.79289 7.79289 7.625 8 7.625C8.20711 7.625 8.375 7.79289 8.375 8ZM11.75 8C11.75 8.20711 11.5821 8.375 11.375 8.375C11.1679 8.375 11 8.20711 11 8C11 7.79289 11.1679 7.625 11.375 7.625C11.5821 7.625 11.75 7.79289 11.75 8Z" stroke="currentColor" stroke-width="1.25" stroke-linecap="round" stroke-linejoin="round"/>
</svg>
