<svg width="100%" height="100%" viewBox="0 0 18 16" fill="none" xmlns="http://www.w3.org/2000/svg">
<path d="M12 4.25C12 3.55252 12 3.20378 11.9233 2.91766C11.7153 2.1412 11.1088 1.53472 10.3323 1.32667C10.0462 1.25 9.69748 1.25 9 1.25C8.30252 1.25 7.95378 1.25 7.66766 1.32667C6.8912 1.53472 6.28472 2.1412 6.07667 2.91766C6 3.20378 6 3.55252 6 4.25M3.9 14.75H14.1C14.9401 14.75 15.3601 14.75 15.681 14.5865C15.9632 14.4427 16.1927 14.2132 16.3365 13.931C16.5 13.6101 16.5 13.1901 16.5 12.35V6.65C16.5 5.80992 16.5 5.38988 16.3365 5.06901C16.1927 4.78677 15.9632 4.5573 15.681 4.41349C15.3601 4.25 14.9401 4.25 14.1 4.25H3.9C3.05992 4.25 2.63988 4.25 2.31901 4.41349C2.03677 4.5573 1.8073 4.78677 1.66349 5.06901C1.5 5.38988 1.5 5.80992 1.5 6.65V12.35C1.5 13.1901 1.5 13.6101 1.66349 13.931C1.8073 14.2132 2.03677 14.4427 2.31901 14.5865C2.63988 14.75 3.05992 14.75 3.9 14.75Z" stroke="currentColor" stroke-width="1.25" stroke-linecap="round" stroke-linejoin="round"/>
</svg>
